<svg xmlns="http://www.w3.org/2000/svg" version="1.1" xmlns:xlink="http://www.w3.org/1999/xlink" xmlns:svgjs="http://svgjs.dev/svgjs" width="1500" height="1500" viewBox="0 0 1500 1500"><rect width="1500" height="1500" fill="#ffffff"></rect><g transform="matrix(0.6666666666666666,0,0,0.6666666666666666,249.39393939393938,714.2039690936273)"><svg viewBox="0 0 396 28" data-background-color="#ffffff" preserveAspectRatio="xMidYMid meet" height="106" width="1500" xmlns="http://www.w3.org/2000/svg" xmlns:xlink="http://www.w3.org/1999/xlink"><g id="tight-bounds" transform="matrix(1,0,0,1,0.2400000000000091,0.18333300063821412)"><svg viewBox="0 0 395.52 27.63333399872355" height="27.63333399872355" width="395.52"><g><svg viewBox="0 0 395.52 27.63333399872355" height="27.63333399872355" width="395.52"><g><svg viewBox="0 0 395.52 27.63333399872355" height="27.63333399872355" width="395.52"><g><svg viewBox="0 0 426.06562972413644 29.76742984310159" height="27.63333399872355" width="395.52"><g transform="matrix(1,0,0,1,30.545629724136457,0.5241250310049264)"><svg viewBox="0 0 395.52 28.719179781091736" height="28.719179781091736" width="395.52"><g id="textblocktransform"><svg viewBox="0 0 395.52 28.719179781091736" height="28.719179781091736" width="395.52" id="textblock"><g><svg viewBox="0 0 395.52 28.719179781091736" height="28.719179781091736" width="395.52"><g transform="matrix(1,0,0,1,0,0)"><svg width="395.52" viewBox="4.4 -35.2 493.68552099609377 35.85" height="28.719179781091736" data-palette-color="#c10000"><g transform="matrix(1,0,0,1,0,0)"><g><svg width="13.3836806640625" viewBox="3.16 -36.36 57.760000000000005 36.36" height="8.426" data-palette-color="#c10000" id="scriptelement" x="484.7018403320312" y="-35.2"><path d="M10.85 0L3.16 0 3.16-36.36 10.85-36.36 10.85-20.33 11.33-20.33 24.41-36.36 33.63-36.36 20.13-20.08 33.79 0 24.59 0 14.63-14.95 10.85-10.33 10.85 0ZM60.92 0L37.64 0 37.64-36.36 45.33-36.36 45.33-6.34 60.92-6.34 60.92 0Z" opacity="1" transform="matrix(1,0,0,1,0,0)" fill="#000000" class="undefined-123" data-fill-palette-color="primary" id="tk-123"></path></svg></g></g><path d="M10.2 0L4.4 0 4.4-34.5 10.2-34.5 10.2 0ZM10.45-18.45L22.4-34.5 28.8-34.5 16.75-18.8 29.75 0 22.8 0 10.45-18.45ZM36 0L36-34.5 41.75-34.5 41.75-4.85 57.25-4.85 56.6 0 36 0ZM71.45-30.1L71.45-19.7 83.95-19.7 83.95-15.35 71.45-15.35 71.45-4.4 86.7-4.4 86.7 0 65.65 0 65.65-34.5 86.4-34.5 85.75-30.1 71.45-30.1ZM118.19-23.65Q118.19-17.85 114.59-15.08 110.99-12.3 104.74-12.3L104.74-12.3 100.54-12.3 100.54 0 94.79 0 94.79-34.5 104.34-34.5Q110.99-34.5 114.59-31.78 118.19-29.05 118.19-23.65L118.19-23.65ZM112.14-23.65Q112.14-30.15 104.74-30.15L104.74-30.15 100.54-30.15 100.54-16.7 104.79-16.7Q108.29-16.7 110.22-18.3 112.14-19.9 112.14-23.65L112.14-23.65ZM137.84-29.8L137.84 0 132.04 0 132.04-29.8 121.64-29.8 121.64-34.5 148.39-34.5 147.79-29.8 137.84-29.8ZM175.39-34.5L175.39-30.1 167.89-30.1 167.89-4.45 175.39-4.45 175.39 0 154.59 0 154.59-4.45 162.09-4.45 162.09-30.1 154.59-30.1 154.59-34.5 175.39-34.5ZM197.89-35.2Q201.29-35.2 203.69-34.35 206.09-33.5 208.29-31.7L208.29-31.7 205.29-28.1Q202.14-30.65 198.14-30.65L198.14-30.65Q193.94-30.65 191.29-27.43 188.64-24.2 188.64-17.3L188.64-17.3Q188.64-10.5 191.24-7.28 193.84-4.05 198.19-4.05L198.19-4.05Q200.69-4.05 202.46-4.83 204.24-5.6 205.99-7L205.99-7 208.79-3.45Q204.59 0.65 197.99 0.65L197.99 0.65Q193.54 0.65 190.04-1.43 186.54-3.5 184.56-7.55 182.59-11.6 182.59-17.3L182.59-17.3Q182.59-22.9 184.61-26.95 186.64-31 190.14-33.1 193.64-35.2 197.89-35.2L197.89-35.2ZM231.03-8.3L218.73-8.3 216.33 0 210.38 0 221.38-34.5 228.58-34.5 239.58 0 233.43 0 231.03-8.3ZM219.93-12.8L229.83-12.8 224.88-30 219.93-12.8ZM275.98 0L275.98-34.5 281.73-34.5 281.73-4.85 297.23-4.85 296.58 0 275.98 0ZM325.38-34.5L325.38-30.1 317.88-30.1 317.88-4.45 325.38-4.45 325.38 0 304.58 0 304.58-4.45 312.08-4.45 312.08-30.1 304.58-30.1 304.58-34.5 325.38-34.5ZM356.77-34.5L358.72 0 353.37 0 352.57-16.8Q352.42-20.1 352.42-23.15L352.42-23.15Q352.42-27.1 352.57-29.4L352.57-29.4 347.47-6.1 342.42-6.1 336.97-29.4Q337.17-26.85 337.17-21.55L337.17-21.55Q337.17-18.35 337.12-16.75L337.12-16.75 336.42 0 331.22 0 333.17-34.5 340.12-34.5 345.07-11.4 349.77-34.5 356.77-34.5ZM385.37-34.5L385.37-30.1 377.87-30.1 377.87-4.45 385.37-4.45 385.37 0 364.57 0 364.57-4.45 372.07-4.45 372.07-30.1 364.57-30.1 364.57-34.5 385.37-34.5ZM407.82-29.8L407.82 0 402.02 0 402.02-29.8 391.62-29.8 391.62-34.5 418.37-34.5 417.77-29.8 407.82-29.8ZM431.42-30.1L431.42-19.7 443.92-19.7 443.92-15.35 431.42-15.35 431.42-4.4 446.67-4.4 446.67 0 425.62 0 425.62-34.5 446.37-34.5 445.72-30.1 431.42-30.1ZM478.01-17.45Q478.01-7.65 473.46-3.83 468.91 0 461.96 0L461.96 0 453.51 0 453.51-34.5 461.41-34.5Q468.91-34.5 473.46-30.88 478.01-27.25 478.01-17.45L478.01-17.45ZM471.91-17.45Q471.91-24.85 469.34-27.45 466.76-30.05 462.51-30.05L462.51-30.05 459.31-30.05 459.31-4.4 462.56-4.4Q471.91-4.4 471.91-17.45L471.91-17.45Z" opacity="1" transform="matrix(1,0,0,1,0,0)" fill="#000000" class="wordmark-text-0" data-fill-palette-color="primary" id="text-0"></path></svg></g></svg></g></svg></g></svg></g><g><svg viewBox="0 0 23.765720638135445 29.76742984310159" height="29.76742984310159" width="23.765720638135445"><g><svg xmlns="http://www.w3.org/2000/svg" xmlns:xlink="http://www.w3.org/1999/xlink" version="1.1" x="0" y="0" viewBox="10.081 0 79.838 100" enable-background="new 0 0 100 100" xml:space="preserve" height="29.76742984310159" width="23.765720638135445" class="icon-icon-0" data-fill-palette-color="accent" id="icon-0"><g fill="#003c3b" data-fill-palette-color="accent"><path fill="#000000" d="M88.507 8.361A39.9 39.9 0 0 1 76.612 10.164C73.903 10.164 71.257 9.894 68.702 9.381A39.8 39.8 0 0 1 51.05 0.905 39 39 0 0 1 50 0C49.656 0.307 49.305 0.61 48.95 0.905A39.8 39.8 0 0 1 31.297 9.381C28.743 9.895 26.097 10.164 23.388 10.164A39.9 39.9 0 0 1 10.081 7.891V50.559C10.081 74.833 27.188 95.113 50 100 72.812 95.113 89.919 74.833 89.919 50.56V7.892C89.453 8.058 88.983 8.213 88.507 8.361M20.394 71.207A45.35 45.35 0 0 1 15.405 50.56V14.783C18.028 15.252 20.698 15.488 23.388 15.488 26.406 15.488 29.42 15.188 32.348 14.598A45.3 45.3 0 0 0 50 6.833 45.4 45.4 0 0 0 65.477 14.102zM84.596 50.56C84.596 60.973 80.973 71.137 74.395 79.18 68.146 86.82 59.519 92.244 50 94.542 44.343 93.176 39.005 90.698 34.29 87.315L84.596 23.593z" data-fill-palette-color="accent"></path></g></svg></g></svg></g></svg></g></svg></g></svg></g><defs></defs></svg><rect width="395.52" height="27.63333399872355" fill="none" stroke="none" visibility="hidden"></rect></g></svg></g></svg>